<svg xmlns="http://www.w3.org/2000/svg" width="219" height="44.358" viewBox="0 0 219 44.358">
  <g id="Layer_x0020_1" transform="translate(0)">
    <g id="_1649946288" transform="translate(51.958 6.821)">
      <path id="Path_30896" data-name="Path 30896" d="M4289.917,586.227c4.83,0,8.452-2.486,8.452-6.783,0-4.545-3.409-6.037-7.209-6.96l-2.663-.639c-2.592-.639-4.226-1.385-4.226-3.48,0-1.811,1.634-2.876,3.906-2.876a6.987,6.987,0,0,1,6.783,4.226l3.018-2.876c-1.7-3.267-5.185-5.078-9.552-5.078-4.475,0-8.345,2.415-8.345,6.889,0,4.51,3.587,6.037,6.96,6.747l2.237.5c3.089.675,5.007,1.314,5.007,3.622,0,2.166-1.917,3.018-4.3,3.018-2.912,0-6.5-1.349-7.777-4.829l-2.841,2.876c1.846,4.013,6,5.646,10.546,5.646Zm18.963-.355,2.415-8.984,1.136-5.362,1.1,5.362,2.451,8.984h5.078l4.439-17.294h-4.439l-1.811,9.73-.746,4.865-1.065-4.865-2.664-9.73h-4.723l-2.628,9.73-1.1,4.865-.746-4.865-1.775-9.73h-4.439l4.4,17.294Zm22.976-19.744V562.08h-3.977v4.048Zm0,19.744V568.578h-3.977v17.294Zm10.44.391a5.924,5.924,0,0,0,4.971-2.273l-1.243-3.551a3.423,3.423,0,0,1-2.841,2.1c-1.172,0-2.06-.462-2.06-2.344v-8.523h5.291v-3.089h-5.291v-4.617l-3.977,2.521v2.1h-2.7v3.089h2.7v9.481A4.765,4.765,0,0,0,4342.3,586.263Zm14.026-.035c4.333,0,7.066-2.45,7.99-5.717l-3.587-1.776c-.391,2.486-1.633,4.155-4.332,4.155-2.734,0-4.4-2.024-4.4-5.646,0-3.658,1.669-5.682,4.4-5.682,2.663,0,3.941,1.669,4.332,4.155l3.587-1.776c-.924-3.267-3.658-5.717-7.99-5.717-5.149,0-8.38,3.622-8.38,9.02,0,5.362,3.231,8.984,8.38,8.984Zm15.021-.355v-9.694c0-2.841.995-4.723,3.907-4.723,2.663,0,3.373,1.456,3.373,3.587v10.831h4.013V573.834c0-3.587-2.059-5.611-5.433-5.611-3.445,0-5.221,2.344-5.86,5.078V562.08h-3.977v23.792Z" transform="translate(-4279.37 -561.76)" fill="#05f"/>
      <path id="Path_30897" data-name="Path 30897" d="M12967.306,611.892l2.272-6h10.05l2.272,6h4.4L12977,588.1h-4.616l-9.3,23.792Zm6.037-15.909,1.278-4.3,1.278,4.3,2.414,6.427h-7.421Zm19.211,22.514V607.276c.568,2.663,2.024,4.972,5.469,4.972,4.262,0,6.961-3.445,6.961-9.02s-2.7-9.02-6.89-9.02c-3.444,0-4.972,2.308-5.54,5.007V594.6h-3.978v23.9h3.978Zm0-14.2v-2.131c0-2.841,1.172-4.723,3.978-4.723,2.486,0,4.367,1.882,4.367,5.788s-1.881,5.788-4.367,5.788c-2.806,0-3.978-1.882-3.978-4.723Zm19.708,14.2V607.276c.568,2.663,2.025,4.972,5.47,4.972,4.262,0,6.96-3.445,6.96-9.02s-2.7-9.02-6.889-9.02c-3.445,0-4.973,2.308-5.541,5.007V594.6h-3.977v23.9h3.977Zm0-14.2v-2.131c0-2.841,1.173-4.723,3.978-4.723,2.486,0,4.368,1.882,4.368,5.788s-1.882,5.788-4.368,5.788c-2.8,0-3.978-1.882-3.978-4.723Z" transform="translate(-12857.648 -587.78)" fill="#122270"/>
    </g>
    <path id="Path_30898" data-name="Path 30898" d="M689.906,437.21a22.179,22.179,0,0,1-28.546,33.95l15.021-15.021c-1.8.006-5.157.008-5.389-.059a.946.946,0,0,1-.626-.739v-.217a.964.964,0,0,1,.609-.724.842.842,0,0,1,.154-.018h8.82c.643,0,1.189.583.006,1.794-.118.122-.215.219-.333.341s-.246.218-.365.34l-.479.5,3.938,3.937,7.189-24.078Z" transform="translate(-653.33 -431.902)" fill="#05f" fill-rule="evenodd"/>
    <path id="Path_30899" data-name="Path 30899" d="M22.18,0A22.085,22.085,0,0,1,36.329,5.1L21.308,20.121c1.8-.006,5.157-.008,5.39.059a.947.947,0,0,1,.626.739v.217a.965.965,0,0,1-.609.724.832.832,0,0,1-.155.018H17.74c-.643,0-1.19-.583-.007-1.793.119-.123.216-.219.334-.341s.246-.218.364-.34l.479-.5-3.937-3.937L7.783,39.05A22.178,22.178,0,0,1,22.18,0Z" fill="#122270" fill-rule="evenodd"/>
  </g>
</svg>
